<?xml version="1.0" encoding="UTF-8"?>
<svg width="118px" height="118px" viewBox="0 0 118 118" version="1.1" xmlns="http://www.w3.org/2000/svg" xmlns:xlink="http://www.w3.org/1999/xlink">
    <!-- Generator: Sketch 42 (36781) - http://www.bohemiancoding.com/sketch -->
    <title>1488451691_matureman1</title>
    <desc>Created with Sketch.</desc>
    <defs>
        <circle id="path-1" cx="54.5" cy="54.5" r="53.960396"></circle>
        <circle id="path-3" cx="54.5" cy="54.5" r="53.960396"></circle>
        <path d="M70.6881188,16.619802 L100.79802,24.929703 C104.251485,26.1168317 106.949505,28.7069307 108.460396,32.0524752 L108.460396,42.6287129 L0.53960396,42.6287129 L0.53960396,32.0524752 C1.94257426,28.7069307 4.74851485,26.1168317 8.2019802,24.929703 L38.3118812,16.619802 L38.3118812,0.53960396 L70.6881188,0.53960396 L70.6881188,16.619802 Z" id="path-5"></path>
        <path d="M22.1237624,63.1336634 C20.5049505,63.1336634 18.3465347,62.809901 16.9435644,62.1623762 C15.2168317,61.4069307 9.17326733,57.1980198 7.12277228,55.3633663 C4.42475248,52.8811881 3.02178218,49.8594059 2.59009901,44.5712871 C2.15841584,39.2831683 0.53960396,20.3970297 0.53960396,16.080198 C0.53960396,9.92871287 6.04356436,0.431683168 22.0158416,0.431683168 L22.0158416,0.431683168 L22.0158416,0.431683168 L22.0158416,0.431683168 L22.0158416,0.431683168 C37.9881188,0.431683168 43.4920792,9.92871287 43.4920792,16.080198 C43.4920792,20.3970297 41.8732673,39.2831683 41.4415842,44.5712871 C41.009901,49.8594059 39.7148515,52.8811881 36.9089109,55.3633663 C34.8584158,57.1980198 28.7069307,61.4069307 27.0881188,62.1623762 C25.9009901,62.809901 23.7425743,63.1336634 22.1237624,63.1336634 L22.1237624,63.1336634 Z" id="path-7"></path>
        <circle id="path-9" cx="54.5" cy="54.5" r="53.960396"></circle>
    </defs>
    <g id="Page-1" stroke="none" stroke-width="1" fill="none" fill-rule="evenodd">
        <g id="1488451691_matureman1" transform="translate(3.000000, 3.000000)">
            <circle id="Oval" stroke="#294D67" stroke-width="6" stroke-linecap="round" stroke-linejoin="round" fill="#3DB3CE" fill-rule="nonzero" cx="56" cy="56" r="56"></circle>
            <g id="Layer_1" transform="translate(2.000000, 2.000000)">
                <g id="Group">
                    <circle id="Oval" fill="#F5EEE5" fill-rule="nonzero" cx="54.5" cy="54.5" r="53.960396"></circle>
                    <g id="Clipped">
                        <g>
                            <mask id="mask-2" fill="white">
                                <use xlink:href="#path-1"></use>
                            </mask>
                            <g id="SVGID_1_"></g>
                            <path d="M70.6881188,82.4514851 L100.79802,90.7613861 C104.251485,91.9485149 106.949505,94.5386139 108.460396,97.8841584 L108.460396,108.460396 L0.53960396,108.460396 L0.53960396,97.8841584 C1.94257426,94.5386139 4.74851485,91.9485149 8.2019802,90.7613861 L38.3118812,82.4514851 L38.3118812,66.3712871 L70.6881188,66.3712871 L70.6881188,82.4514851 Z" id="Shape" fill="#D4B08C" fill-rule="nonzero" mask="url(#mask-2)"></path>
                        </g>
                        <g>
                            <mask id="mask-4" fill="white">
                                <use xlink:href="#path-3"></use>
                            </mask>
                            <g id="SVGID_1_"></g>
                            <g mask="url(#mask-4)">
                                <g transform="translate(0.000000, 65.831683)">
                                    <mask id="mask-6" fill="white">
                                        <use xlink:href="#path-5"></use>
                                    </mask>
                                    <g id="SVGID_3_" stroke="none" fill="none"></g>
                                    <polygon id="Shape" stroke="none" fill="#1E1F24" fill-rule="nonzero" mask="url(#mask-6)" points="54.7158416 21.0445545 46.9455446 21.0445545 38.3118812 16.619802 0.53960396 15.6485149 0.53960396 42.6287129 54.7158416 42.6287129 108.892079 42.6287129 108.892079 15.6485149 67.6663366 15.6485149 62.4861386 21.0445545"></polygon>
                                </g>
                            </g>
                        </g>
                    </g>
                    <path d="M54.5,80.4009901 C52.8811881,80.4009901 50.7227723,80.0772277 49.319802,79.429703 C47.5930693,78.6742574 41.549505,74.4653465 39.4990099,72.6306931 C36.8009901,70.1485149 35.3980198,67.1267327 34.9663366,61.8386139 C34.5346535,56.550495 32.9158416,37.6643564 32.9158416,33.3475248 C32.9158416,27.1960396 38.419802,17.6990099 54.3920792,17.6990099 L54.3920792,17.6990099 L54.3920792,17.6990099 L54.3920792,17.6990099 L54.3920792,17.6990099 C70.3643564,17.6990099 75.8683168,27.1960396 75.8683168,33.3475248 C75.8683168,37.6643564 74.249505,56.550495 73.8178218,61.8386139 C73.3861386,67.1267327 72.0910891,70.1485149 69.2851485,72.6306931 C67.2346535,74.4653465 61.0831683,78.6742574 59.4643564,79.429703 C58.2772277,80.0772277 56.1188119,80.4009901 54.5,80.4009901 L54.5,80.4009901 Z" id="Shape" fill="#F2CEA5" fill-rule="nonzero"></path>
                    <g id="Clipped" transform="translate(32.376238, 17.267327)">
                        <mask id="mask-8" fill="white">
                            <use xlink:href="#path-7"></use>
                        </mask>
                        <g id="SVGID_5_"></g>
                        <path d="M33.9950495,49.1039604 C32.9158416,47.8089109 30.7574257,45.9742574 27.1960396,45.8663366 C23.6346535,45.7584158 24.4980198,47.9168317 22.1237624,48.0247525 L22.0158416,48.0247525 C22.0158416,48.0247525 22.0158416,48.0247525 21.9079208,48.0247525 C19.6415842,47.9168317 20.5049505,45.8663366 16.8356436,45.8663366 C13.1663366,45.8663366 11.0079208,47.7009901 10.0366337,49.1039604 L1.4029703,37.2326733 L1.4029703,66.3712871 L22.0158416,66.3712871 L42.6287129,66.3712871 L42.6287129,37.2326733 L33.9950495,49.1039604 Z M26.4405941,56.6584158 C25.2534653,56.550495 24.6059406,56.2267327 24.2821782,55.7950495 C24.2821782,55.1475248 23.850495,54.3920792 22.0158416,54.5 C20.1811881,54.3920792 19.8574257,55.1475248 19.749505,55.7950495 C19.4257426,56.2267327 18.7782178,56.6584158 17.5910891,56.6584158 C13.490099,56.4425743 12.1950495,53.7445545 12.1950495,51.8019802 C12.1950495,49.8594059 13.8138614,49.1039604 17.5910891,49.1039604 C20.2891089,49.1039604 19.4257426,50.0752475 21.9079208,50.1831683 L22.0158416,50.1831683 L22.1237624,50.1831683 C24.6059406,50.1831683 23.7425743,49.1039604 26.4405941,49.1039604 C30.2178218,49.1039604 31.8366337,49.8594059 31.8366337,51.8019802 C31.8366337,53.7445545 30.5415842,56.4425743 26.4405941,56.6584158 Z" id="Shape" fill="#2D2E35" fill-rule="nonzero" mask="url(#mask-8)"></path>
                    </g>
                    <path d="M57.7376238,70.6881188 L51.2623762,70.6881188 C50.6148515,70.6881188 50.1831683,70.2564356 50.1831683,69.6089109 C50.1831683,68.9613861 50.6148515,68.529703 51.2623762,68.529703 L57.7376238,68.529703 C58.3851485,68.529703 58.8168317,68.9613861 58.8168317,69.6089109 C58.8168317,70.2564356 58.3851485,70.6881188 57.7376238,70.6881188 Z" id="Shape" fill="#A3705F" fill-rule="nonzero"></path>
                    <path d="M64.2128713,51.2623762 C65.4,51.2623762 66.3712871,50.2910891 66.3712871,49.1039604 C66.3712871,47.9168317 65.4,46.9455446 64.2128713,46.9455446 C63.0257426,46.9455446 62.0544554,47.9168317 62.0544554,49.1039604 C62.0544554,50.2910891 63.0257426,51.2623762 64.2128713,51.2623762 Z M44.7871287,51.2623762 C45.9742574,51.2623762 46.9455446,50.2910891 46.9455446,49.1039604 C46.9455446,47.9168317 45.9742574,46.9455446 44.7871287,46.9455446 C43.6,46.9455446 42.6287129,47.9168317 42.6287129,49.1039604 C42.6287129,50.2910891 43.6,51.2623762 44.7871287,51.2623762 Z" id="Shape" fill="#262626" fill-rule="nonzero"></path>
                    <path d="M50.8306931,47.4851485 C50.2910891,46.6217822 48.780198,44.7871287 44.8950495,44.7871287 C40.470297,44.7871287 39.3910891,47.2693069 39.3910891,47.3772277 L37.3405941,46.6217822 C37.4485149,46.5138614 38.8514851,42.7366337 44.8950495,42.7366337 C49.8594059,42.7366337 52.0178218,45.3267327 52.6653465,46.5138614 L50.8306931,47.4851485 Z" id="Shape" fill="#CC9872" fill-rule="nonzero"></path>
                    <path d="M55.5792079,58.8168317 L55.5792079,49.1039604 C55.5792079,46.4059406 58.2772277,42.7366337 64.2128713,42.6287129 C70.1485149,42.6287129 71.6594059,46.4059406 71.7673267,46.5138614 L69.7168317,47.2693069 C69.7168317,47.1613861 68.6376238,44.7871287 64.2128713,44.6792079 C59.7881188,44.6792079 57.7376238,47.2693069 57.7376238,48.9960396 L57.7376238,58.7089109 L55.5792079,58.8168317 Z" id="Shape" fill="#BB8660" fill-rule="nonzero"></path>
                    <path d="M38.419802,80.8326733 L40.2544554,77.8108911 L54.1762376,84.1782178 L68.3138614,78.890099 L70.6881188,81.2643564 L70.6881188,88.2792079 C70.6881188,88.2792079 59.0326733,99.7188119 54.5,99.8267327 C49.9673267,99.8267327 38.419802,87.4158416 38.419802,87.4158416 L38.419802,80.8326733 L38.419802,80.8326733 Z" id="Shape" fill="#D4B08C" fill-rule="nonzero"></path>
                    <g id="Clipped">
                        <mask id="mask-10" fill="white">
                            <use xlink:href="#path-9"></use>
                        </mask>
                        <g id="SVGID_7_"></g>
                        <path d="M70.6881188,82.4514851 L70.6881188,87.9554455 C70.6881188,103.172277 61.5148515,109.215842 61.5148515,109.215842 L59.5722772,109.215842 L54.8237624,109.215842 L50.1831683,109.215842 L48.2405941,109.215842 C48.2405941,109.215842 38.3118812,101.985149 38.3118812,89.0346535 L38.3118812,82.4514851 C39.3910891,83.5306931 41.1178218,92.2722772 54.8237624,92.2722772 C68.529703,92.2722772 69.6089109,83.5306931 70.6881188,82.4514851 Z" id="Shape" fill="#6B363E" fill-rule="nonzero" mask="url(#mask-10)"></path>
                    </g>
                    <rect id="Rectangle-path" fill="#E1BC90" fill-rule="nonzero" x="44.8950495" y="32.9158416" width="19.3178218" height="2.15841584"></rect>
                    <rect id="Rectangle-path" fill="#E1BC90" fill-rule="nonzero" x="49.2118812" y="37.2326733" width="10.6841584" height="2.15841584"></rect>
                    <path d="M75.1128713,49.1039604 C75.1128713,49.1039604 75.2207921,34.9663366 69.1772277,27.1960396 C67.7742574,28.4910891 65.4,29.570297 62.1623762,29.570297 C58.9247525,29.570297 55.7950495,28.3831683 52.1257426,26.5485149 C48.4564356,24.7138614 46.4059406,23.2029703 43.1683168,22.8792079 C41.009901,23.6346535 33.9950495,29.2465347 33.9950495,38.9594059 C33.9950495,48.6722772 34.2108911,52.2336634 34.2108911,52.2336634 C34.2108911,52.2336634 29.6782178,46.0821782 29.6782178,36.8009901 C29.6782178,27.519802 34.8584158,20.8287129 41.2257426,20.6128713 C43.8158416,18.2386139 48.780198,16.5118812 54.0683168,16.5118812 C59.3564356,16.5118812 69.7168317,19.1019802 74.0336634,26.4405941 C80.4009901,37.1247525 75.1128713,49.1039604 75.1128713,49.1039604 Z" id="Shape" fill="#2D2E35" fill-rule="nonzero"></path>
                </g>
            </g>
        </g>
    </g>
</svg>