<?xml version="1.0" encoding="UTF-8"?>
<svg width="118px" height="118px" viewBox="0 0 118 118" version="1.1" xmlns="http://www.w3.org/2000/svg" xmlns:xlink="http://www.w3.org/1999/xlink">
    <!-- Generator: Sketch 42 (36781) - http://www.bohemiancoding.com/sketch -->
    <title>1488451727_diamond</title>
    <desc>Created with Sketch.</desc>
    <defs></defs>
    <g id="Page-1" stroke="none" stroke-width="1" fill="none" fill-rule="evenodd">
        <g id="1488451727_diamond" transform="translate(3.000000, 3.000000)" fill-rule="nonzero">
            <circle id="Oval" stroke="#294D67" stroke-width="6" stroke-linecap="round" stroke-linejoin="round" fill="#F5876F" cx="56" cy="56" r="56"></circle>
            <g id="diamond" transform="translate(2.000000, 2.000000)">
                <g id="Group">
                    <path d="M54.499564,108.783305 C84.59817,108.783305 108.997166,84.4310519 108.997166,54.3905649 C108.997166,24.3522535 84.59817,0 54.499564,0 C24.398996,0 0,24.3522535 0,54.3907824 C0,84.4312695 24.398996,108.783305 54.499564,108.783305 Z" id="Shape" fill="#59616A"></path>
                    <g id="_x33_1" transform="translate(28.122000, 22.626747)">
                        <g id="Group" transform="translate(0.000000, 20.233533)">
                            <polygon id="Shape" fill="#A8B6C0" points="52.568084 13.8623633 52.566994 13.8623633 44.195576 0.095510978 44.194704 0.095510978 26.512506 0.095510978 8.516606 0.095510978 8.516606 0.095510978 0.142354 13.8623633 0.142354 13.8623633 26.703692 43.1376747 52.541052 13.9393812 52.610812 13.9393812"></polygon>
                            <polygon id="Shape" fill="#9DADB8" points="13.496162 13.8623633 0.142354 13.8623633 0.142354 13.8623633 26.703692 43.1376747"></polygon>
                            <polygon id="Shape" fill="#9DADB8" points="52.568084 13.8623633 52.566994 13.8623633 39.538442 13.8623633 39.538442 13.8623633 26.703692 43.1376747 52.541052 13.9393812 52.610812 13.9393812"></polygon>
                            <polygon id="Shape" fill="#B3BFC8" points="39.538442 13.8623633 52.566994 13.8623633 44.195576 0.095510978 44.194704 0.095510978"></polygon>
                            <polygon id="Shape" fill="#E4E8EB" points="39.538442 13.8623633 26.512506 0.095510978 13.496162 13.8623633"></polygon>
                            <polygon id="Shape" fill="#B3BFC8" points="13.496162 13.8623633 8.516606 0.095510978 8.516606 0.095510978 0.142354 13.8623633"></polygon>
                            <polygon id="Shape" fill="#BEC8D0" points="13.496162 13.8623633 26.703692 43.1376747 39.538442 13.8623633"></polygon>
                            <polygon id="Shape" fill="#C8D1D7" points="26.512506 0.095510978 8.516606 0.095510978 13.496162 13.8623633"></polygon>
                            <polygon id="Shape" fill="#C8D1D7" points="44.194704 0.095510978 26.512506 0.095510978 39.538442 13.8623633"></polygon>
                        </g>
                        <g id="Group" transform="translate(27.686000, 0.000000)" fill="#FFFFFF">
                            <path d="M14.722848,9.65988024 C14.159318,9.09377645 13.774548,8.0616487 13.667292,7.5978004 C13.579874,8.06730539 13.239794,9.11531537 12.702206,9.70274052 C12.030548,10.4381098 11.26951,10.8854232 10.795142,10.8686707 C11.303736,10.9737545 12.057362,11.5278922 12.730982,12.3396267 C13.371902,13.108501 13.764084,13.8188503 13.805068,14.3338263 C13.826432,13.8168922 14.189838,13.0908782 14.795442,12.2930679 C15.430694,11.4591417 16.158378,10.8732395 16.661522,10.7450938 C16.186282,10.7692435 15.414998,10.3545649 14.722848,9.65988024 Z" id="Shape"></path>
                            <path d="M4.579308,2.53615369 C3.998992,1.86213772 3.65695,0.682283433 3.57411,0.156864271 C3.439822,0.671840319 2.977008,1.8090519 2.327586,2.41801597 C1.531014,3.16926747 0.658142,3.60439721 0.129928,3.56066667 C0.685174,3.72144711 1.476078,4.39829142 2.155366,5.35035529 C2.803698,6.26042914 3.18389,7.08238922 3.184762,7.65980639 C3.250816,7.08608782 3.716682,6.30872854 4.454394,5.47197405 C5.23418,4.59431737 6.09419,4.00101796 6.663388,3.90267864 C6.135174,3.90485429 5.300452,3.37769461 4.579308,2.53615369 Z" id="Shape"></path>
                        </g>
                    </g>
                </g>
            </g>
        </g>
    </g>
</svg>