<?xml version="1.0" encoding="UTF-8"?>
<svg width="118px" height="118px" viewBox="0 0 118 118" version="1.1" xmlns="http://www.w3.org/2000/svg" xmlns:xlink="http://www.w3.org/1999/xlink">
    <!-- Generator: Sketch 42 (36781) - http://www.bohemiancoding.com/sketch -->
    <title>img_project02-icon</title>
    <desc>Created with Sketch.</desc>
    <defs></defs>
    <g id="Page-1" stroke="none" stroke-width="1" fill="none" fill-rule="evenodd">
        <g id="img_project02-icon" transform="translate(3.000000, 3.000000)" fill-rule="nonzero">
            <circle id="Oval" stroke="#FFFFFF" stroke-width="6" stroke-linecap="round" stroke-linejoin="round" fill="#CC5497" cx="56" cy="56" r="56"></circle>
            <g id="Group" transform="translate(17.000000, 36.000000)" fill="#FFFFFF">
                <path d="M34,46 C35.106383,46 36,45.106383 36,44 C36,42.893617 35.106383,42 34,42 C32.893617,42 32,42.893617 32,44 C32,45.106383 32.893617,46 34,46 Z M34,42.8510638 C34.6382979,42.8510638 35.1489362,43.3617021 35.1489362,44 C35.1489362,44.6382979 34.6382979,45.1489362 34,45.1489362 C33.3617021,45.1489362 32.8510638,44.6382979 32.8510638,44 C32.8510638,43.3617021 33.3617021,42.8510638 34,42.8510638 Z" id="Shape"></path>
                <path d="M39.5,46 C40.606383,46 41.5,45.106383 41.5,44 C41.5,42.893617 40.606383,42 39.5,42 C38.393617,42 37.5,42.893617 37.5,44 C37.5,45.106383 38.393617,46 39.5,46 Z M39.5,42.8510638 C40.1382979,42.8510638 40.6489362,43.3617021 40.6489362,44 C40.6489362,44.6382979 40.1382979,45.1489362 39.5,45.1489362 C38.8617021,45.1489362 38.3510638,44.6382979 38.3510638,44 C38.3510638,43.3617021 38.8617021,42.8510638 39.5,42.8510638 Z" id="Shape"></path>
                <path d="M45,46 C46.106383,46 47,45.106383 47,44 C47,42.893617 46.106383,42 45,42 C43.893617,42 43,42.893617 43,44 C43,45.106383 43.893617,46 45,46 Z M45,42.8510638 C45.6382979,42.8510638 46.1489362,43.3617021 46.1489362,44 C46.1489362,44.6382979 45.6382979,45.1489362 45,45.1489362 C44.3617021,45.1489362 43.8510638,44.6382979 43.8510638,44 C43.8510638,43.3617021 44.3617021,42.8510638 45,42.8510638 Z" id="Shape"></path>
                <path d="M21.4358974,24 L0.564102564,24 C0.225641026,24 0,24.4 0,25 C0,25.6 0.225641026,26 0.564102564,26 L21.4358974,26 C21.774359,26 22,25.6 22,25 C22,24.4 21.774359,24 21.4358974,24 Z" id="Shape"></path>
                <path d="M21.4358974,28 L0.564102564,28 C0.225641026,28 0,28.4 0,29 C0,29.6 0.225641026,30 0.564102564,30 L21.4358974,30 C21.774359,30 22,29.6 22,29 C22,28.4 21.774359,28 21.4358974,28 Z" id="Shape"></path>
                <path d="M21.4358974,30 L0.564102564,30 C0.225641026,30 0,30.4 0,31 C0,31.6 0.225641026,32 0.564102564,32 L21.4358974,32 C21.774359,32 22,31.6 22,31 C22,30.4 21.774359,30 21.4358974,30 Z" id="Shape"></path>
                <path d="M21.4358974,33 L0.564102564,33 C0.225641026,33 0,33.4 0,34 C0,34.6 0.225641026,35 0.564102564,35 L21.4358974,35 C21.774359,35 22,34.6 22,34 C22,33.4 21.774359,33 21.4358974,33 Z" id="Shape"></path>
                <path d="M49.4358974,24 L28.5641026,24 C28.225641,24 28,24.4 28,25 C28,25.6 28.225641,26 28.5641026,26 L49.4358974,26 C49.774359,26 50,25.6 50,25 C50,24.4 49.774359,24 49.4358974,24 Z" id="Shape"></path>
                <path d="M49.4358974,28 L28.5641026,28 C28.225641,28 28,28.4 28,29 C28,29.6 28.225641,30 28.5641026,30 L49.4358974,30 C49.774359,30 50,29.6 50,29 C50,28.4 49.774359,28 49.4358974,28 Z" id="Shape"></path>
                <path d="M49.4358974,30 L28.5641026,30 C28.225641,30 28,30.4 28,31 C28,31.6 28.225641,32 28.5641026,32 L49.4358974,32 C49.774359,32 50,31.6 50,31 C50,30.4 49.774359,30 49.4358974,30 Z" id="Shape"></path>
                <path d="M49.4358974,33 L28.5641026,33 C28.225641,33 28,33.4 28,34 C28,34.6 28.225641,35 28.5641026,35 L49.4358974,35 C49.774359,35 50,34.6 50,34 C50,33.4 49.774359,33 49.4358974,33 Z" id="Shape"></path>
                <path d="M78.4358974,24 L57.5641026,24 C57.225641,24 57,24.4 57,25 C57,25.6 57.225641,26 57.5641026,26 L78.4358974,26 C78.774359,26 79,25.6 79,25 C79,24.4 78.774359,24 78.4358974,24 Z" id="Shape"></path>
                <path d="M78.4358974,28 L57.5641026,28 C57.225641,28 57,28.4 57,29 C57,29.6 57.225641,30 57.5641026,30 L78.4358974,30 C78.774359,30 79,29.6 79,29 C79,28.4 78.774359,28 78.4358974,28 Z" id="Shape"></path>
                <path d="M78.4358974,30 L57.5641026,30 C57.225641,30 57,30.4 57,31 C57,31.6 57.225641,32 57.5641026,32 L78.4358974,32 C78.774359,32 79,31.6 79,31 C79,30.4 78.774359,30 78.4358974,30 Z" id="Shape"></path>
                <path d="M78.4358974,33 L57.5641026,33 C57.225641,33 57,33.4 57,34 C57,34.6 57.225641,35 57.5641026,35 L78.4358974,35 C78.774359,35 79,34.6 79,34 C79,33.4 78.774359,33 78.4358974,33 Z" id="Shape"></path>
                <path d="M0,22 L22,22 L22,0 L0,0 L0,22 Z M1.1,1.1 L20.9,1.1 L20.9,20.9 L1.1,20.9 L1.1,1.1 Z" id="Shape"></path>
                <path d="M28,22 L50,22 L50,0 L28,0 L28,22 Z M29.1,1.1 L48.9,1.1 L48.9,20.9 L29.1,20.9 L29.1,1.1 Z" id="Shape"></path>
                <path d="M79,0 L57,0 L57,22 L79,22 L79,0 Z M77.9,20.9 L58.1,20.9 L58.1,1.1 L77.9,1.1 L77.9,20.9 Z" id="Shape"></path>
            </g>
        </g>
    </g>
</svg>