<?xml version="1.0" encoding="UTF-8"?>
<svg width="1920px" height="1080px" viewBox="0 0 1920 1080" version="1.1" xmlns="http://www.w3.org/2000/svg" xmlns:xlink="http://www.w3.org/1999/xlink" style="background: #88EAC9;">
    <!-- Generator: Sketch 42 (36781) - http://www.bohemiancoding.com/sketch -->
    <title>Landscape</title>
    <desc>Created with Sketch.</desc>
    <defs>
        <linearGradient x1="50%" y1="0%" x2="50%" y2="100%" id="linearGradient-1">
            <stop stop-color="#DA9F89" offset="0%"></stop>
            <stop stop-color="#F4E084" offset="100%"></stop>
        </linearGradient>
        <rect id="path-2" x="0" y="0" width="1920" height="1080"></rect>
        <mask id="mask-3" maskContentUnits="userSpaceOnUse" maskUnits="objectBoundingBox" x="0" y="0" width="1920" height="1080" fill="white">
            <use xlink:href="#path-2"></use>
        </mask>
        <linearGradient x1="50%" y1="0%" x2="50%" y2="190.566587%" id="linearGradient-4">
            <stop stop-color="#F1D68A" offset="0%"></stop>
            <stop stop-color="#C68F44" offset="100%"></stop>
        </linearGradient>
        <path d="M-36,1009 C-36,1009 766.734716,910.981693 1151,937.5 C1296.60389,947.548185 1035,937.5 1356,937.5 C1560.78338,937.5 1920,821 1920,821 L1920,1070 L-7.10542736e-15,1070 L-36,1009 Z" id="path-5"></path>
        <mask id="mask-6" maskContentUnits="userSpaceOnUse" maskUnits="objectBoundingBox" x="0" y="0" width="1956" height="249" fill="white">
            <use xlink:href="#path-5"></use>
        </mask>
        <linearGradient x1="137.823015%" y1="27.0574639%" x2="10.3564953%" y2="67.6410506%" id="linearGradient-7">
            <stop stop-color="#E8A64C" offset="0%"></stop>
            <stop stop-color="#C68F44" offset="100%"></stop>
        </linearGradient>
        <linearGradient x1="-48.5039182%" y1="38.8355973%" x2="100%" y2="57.9425275%" id="linearGradient-8">
            <stop stop-color="#FEB95B" offset="0%"></stop>
            <stop stop-color="#FDB85B" offset="4.30285386%"></stop>
            <stop stop-color="#E0A350" offset="100%"></stop>
            <stop stop-color="#E0A350" offset="100%"></stop>
        </linearGradient>
        <path d="M0,815 C0,815 766.734716,920.981693 1151,947.5 C1296.60389,957.548185 1442.27518,959.981554 1567.05748,959.128158 C1771.58991,957.729346 1920,959.128158 1920,959.128158 L1920,1080 L0,1080 L0,815 Z" id="path-9"></path>
        <mask id="mask-10" maskContentUnits="userSpaceOnUse" maskUnits="objectBoundingBox" x="0" y="0" width="1920" height="265" fill="white">
            <use xlink:href="#path-9"></use>
        </mask>
    </defs>
    <g id="DA-v2" stroke="none" stroke-width="1" fill="none" fill-rule="evenodd">
        <g id="Landscape">
            <use id="bg" stroke="#979797" mask="url(#mask-3)" stroke-width="2" fill="url(#linearGradient-1)" xlink:href="#path-2"></use>
            <g id="mountains" transform="translate(520.000000, 491.000000)" fill="url(#linearGradient-4)">
                <path d="M800,257 C800,257 917.266818,227.074753 1008.72348,164.237558 C1100.18014,101.400363 1179.1805,-2.04449369 1256.88319,0.0307504643 C1407.89511,4.06390012 1392.50536,221.853982 1607,242.595894" id="Path-4"></path>
                <path d="M698,257 C698,257 727.643657,244.307969 750.762813,217.657174 C773.881969,191.00638 793.852319,147.13288 813.494636,148.013042 C851.668653,149.7236 847.778308,242.093712 902,250.890866" id="Path-4-Copy-2" transform="translate(800.000000, 202.500000) scale(-1, 1) translate(-800.000000, -202.500000) "></path>
                <path d="M0,279 C0,279 62.7055298,261.879624 122.156138,234.551765 C154.564929,219.654309 145.677279,183.7339 177.943981,160.322684 C195.834777,147.341956 260.023348,157.141632 278.939213,143.309638 C288.831171,136.076265 311.642431,38.0272299 344.34565,28.9007035 C410.713945,3.34642949 456.452414,56.3261858 464.578069,65.4068091 C522.289631,129.900929 595.027995,101.13719 630.979738,143.309638 C666.931481,185.482086 691.389282,251.983241 807,263.789123" id="Path-4-Copy"></path>
            </g>
            <g id="sun" transform="translate(660.000000, 103.000000)">
                <circle id="Oval-5" fill="#F2DC86" cx="50" cy="50" r="38"></circle>
                <circle id="Oval-5-Copy" stroke="#F3DE86" stroke-width="3" cx="49.5" cy="49.5" r="49.5"></circle>
            </g>
            <use id="Rectangle-12-Copy" stroke="#979797" mask="url(#mask-6)" stroke-width="2" fill="#DDBF64" opacity="0.550000012" xlink:href="#path-5"></use>
            <g id="Trees-/-Round-2-small-/-brown" transform="translate(1704.000000, 802.000000)" opacity="0.934612772">
                <g id="Trees-/-Round-2-small">
                    <path d="M0,72.5913668 C0,112.3745 27.4253214,144.627332 61.2538298,144.627332 L61.2538298,0.557389797 C27.4253214,0.557389797 0,32.8082337 0,72.5913668" id="Fill-192-Copy" fill="url(#linearGradient-7)"></path>
                    <path d="M60.3472263,0.557389797 L60.3472263,144.627332 C94.1757346,144.627332 121.601056,112.3745 121.601056,72.5913668 C121.601056,32.8082337 94.1757346,0.557389797 60.3472263,0.557389797" id="Fill-193-Copy" fill="url(#linearGradient-8)"></path>
                    <path d="M63.7012307,182.651707 L63.7012307,62.8906966 M63.7012307,101.427065 L88.6562442,83.0457341 M63.7012307,127.513681 L26.3946776,104.984421" id="Stroke-194-Copy" stroke="#AD6F19" stroke-width="5.75"></path>
                </g>
            </g>
            <g id="Trees-/-Round-2-small-/-brown" transform="translate(1849.000000, 841.000000)" opacity="0.934612772">
                <g id="Trees-/-Round-2-small">
                    <path d="M0,42.0474584 C0,65.0912403 15.9606379,83.7732088 35.6477206,83.7732088 L35.6477206,0.322859664 C15.9606379,0.322859664 0,19.0036764 0,42.0474584" id="Fill-192-Copy" fill="url(#linearGradient-7)"></path>
                    <path d="M35.1201071,0.322859664 L35.1201071,83.7732088 C54.8071898,83.7732088 70.7678277,65.0912403 70.7678277,42.0474584 C70.7678277,19.0036764 54.8071898,0.322859664 35.1201071,0.322859664" id="Fill-193-Copy" fill="url(#linearGradient-8)"></path>
                    <path d="M37.0720277,105.798257 L37.0720277,36.4284909 M37.0720277,58.7501031 L51.5950274,48.1029935 M37.0720277,73.8603833 L15.360837,60.8106482" id="Stroke-194-Copy" stroke="#AD6F19" stroke-width="5.75"></path>
                </g>
            </g>
            <path d="M203.721228,331.082458 C207.387699,329.562335 211.404586,328.719982 215.620418,328.719982 C231.589397,328.719982 244.746464,340.760695 246.503513,356.259892 C246.636897,357.422817 246.898238,359.804283 243.54601,359.804283 L188,359.804283 L141.962273,359.804283 C139.947499,359.804283 138.885855,357.230654 139.009743,355.968708 C140.936348,336.337327 157.490406,321 177.627741,321 C187.675384,321 196.830033,324.817941 203.721228,331.082458 Z" id="Shape" fill="#EAC78E"></path>
            <path d="M1803.43359,333 C1796.37492,333 1789.94359,335.682181 1785.10239,340.083131 C1782.52662,339.015214 1779.70467,338.423444 1776.74297,338.423444 C1765.52443,338.423444 1756.28133,346.88229 1755.04696,357.77079 C1754.95326,358.587769 1754.76966,360.260797 1757.12467,360.260797 L1828.48931,360.260797 C1829.90473,360.260797 1830.65055,358.45277 1830.56352,357.566227 C1829.21004,343.774466 1817.5808,333 1803.43359,333 L1803.43359,333 Z" id="Shape" fill="#EAC78E"></path>
            <path d="M1671.53159,172 L1751,172 L1751,171.29008 C1760.20961,168.860157 1767,160.47307 1767,150.5 C1767,140.52693 1760.20961,132.139843 1751,129.70992 L1751,129 L1745.83882,129 C1745.94548,127.847654 1746,126.680194 1746,125.5 C1746,104.789322 1729.21068,88 1708.5,88 C1693.36631,88 1680.32644,96.9646627 1674.40103,109.873325 C1670.99348,108.660384 1667.32386,108 1663.5,108 C1645.55075,108 1631,122.550746 1631,140.5 C1631,158.449254 1645.55075,173 1663.5,173 C1666.27194,173 1668.96283,172.652975 1671.53159,172 Z" id="Combined-Shape" fill="#EAC78E"></path>
            <path d="M705.303799,469 L762,469 L762,468.336679 C768.365849,466.408452 773,460.495408 773,453.5 C773,446.504592 768.365849,440.591548 762,438.663321 L762,438 L757.927048,438 C757.975399,437.339646 758,436.672696 758,436 C758,421.088312 745.911688,409 731,409 C720.227964,409 710.929294,415.308232 706.596643,424.432042 C704.072511,423.505669 701.345308,423 698.5,423 C685.521308,423 675,433.521308 675,446.5 C675,459.478692 685.521308,470 698.5,470 C700.865872,470 703.150087,469.650385 705.303799,469 Z" id="Combined-Shape-Copy" fill="#EAC78E"></path>
            <use id="Rectangle-12" stroke="#979797" mask="url(#mask-10)" stroke-width="2" fill="#C68F44" xlink:href="#path-9"></use>
            <g id="Trees-/-rectangular-/-brown" transform="translate(66.000000, 637.000000)">
                <g id="Trees-/-rectangular">
                    <polyline id="Fill-205" fill="#C68F44" points="32.403741 92.3557094 0.715203461 184.503547 64.0972575 184.503547 64.0972575 0.205384036 32.403741 92.3557094"></polyline>
                    <polyline id="Fill-206" fill="#E1A350" points="94.5851797 92.3557094 62.8941527 0.205384036 62.8941527 184.503547 126.276207 184.503547 94.5851797 92.3557094"></polyline>
                    <path d="M63.3759851,216.723506 L63.3759851,109.391851 M63.3759851,143.926764 L89.6947233,127.451712 M63.3759851,167.305814 L24.0323094,147.116287" id="Stroke-197-Copy" stroke="#C1832D" stroke-width="5.75"></path>
                </g>
            </g>
            <g id="Trees-/-rectangular-/-brown" transform="translate(193.000000, 703.000000)">
                <g id="Trees-/-rectangular">
                    <polyline id="Fill-205" fill="#C68F44" points="25.2596091 68.0963756 0.557520808 136.039482 49.9655787 136.039482 49.9655787 0.151435234 25.2596091 68.0963756"></polyline>
                    <polyline id="Fill-206" fill="#E1A350" points="73.7317542 68.0963756 49.0277253 0.151435234 49.0277253 136.039482 98.4357832 136.039482 73.7317542 68.0963756"></polyline>
                    <path d="M49.4033269,159.796134 L49.4033269,80.6575858 M49.4033269,106.121117 L69.9195087,93.9736128 M49.4033269,123.359125 L18.7338475,108.472838" id="Stroke-197-Copy" stroke="#C1832D" stroke-width="5.75"></path>
                </g>
            </g>
            <g id="Trees-/-rectangular-/-brown" transform="translate(0.000000, 711.000000)">
                <g id="Trees-/-rectangular">
                    <polyline id="Fill-205" fill="#C68F44" points="17.8603297 48.0930653 0.394206632 96.0778838 35.3291971 96.0778838 35.3291971 0.106951134 17.8603297 48.0930653"></polyline>
                    <polyline id="Fill-206" fill="#E1A350" points="52.1335636 48.0930653 34.6660684 0.106951134 34.6660684 96.0778838 69.6010588 96.0778838 52.1335636 48.0930653"></polyline>
                    <path d="M34.9316453,112.856019 L34.9316453,56.96442 M34.9316453,74.9480386 L49.4380365,66.368864 M34.9316453,87.1223822 L13.2461548,76.6089419" id="Stroke-197-Copy" stroke="#C1832D" stroke-width="5.75"></path>
                </g>
            </g>
            <g id="Trees-/-rectangular-/-brown" transform="translate(997.000000, 825.000000)">
                <g id="Trees-/-rectangular">
                    <polyline id="Fill-205" fill="#C68F44" points="17.8603297 48.0930653 0.394206632 96.0778838 35.3291971 96.0778838 35.3291971 0.106951134 17.8603297 48.0930653"></polyline>
                    <polyline id="Fill-206" fill="#E1A350" points="52.1335636 48.0930653 34.6660684 0.106951134 34.6660684 96.0778838 69.6010588 96.0778838 52.1335636 48.0930653"></polyline>
                    <path d="M34.9316453,112.856019 L34.9316453,56.96442 M34.9316453,74.9480386 L49.4380365,66.368864 M34.9316453,87.1223822 L13.2461548,76.6089419" id="Stroke-197-Copy" stroke="#C1832D" stroke-width="5.75"></path>
                </g>
            </g>
            <g id="noun_576930_cc" opacity="0.800000012" transform="translate(1257.000000, 862.000000)" fill-rule="nonzero" fill="#C68F44">
                <g id="Group">
                    <g transform="translate(67.000000, 54.000000) scale(-1, 1) rotate(-180.000000) translate(-67.000000, -54.000000) " id="Shape">
                        <g>
                            <g>
                                <path d="M0.999,0.999 L0.999,13.1543414 L12.9722567,15.2506905 L20.022893,13.1543414 L30.442888,13.1543414 C23.1452498,15.9726959 17.9661276,23.0407491 17.9661276,31.3105612 C17.9661276,42.0598921 26.7156934,50.7698742 37.4951077,50.7698742 C48.2792722,50.7698742 57.0272546,42.0598921 57.0272546,31.3105612 C57.0272546,23.0407491 51.8481323,15.9726959 44.5489108,13.1543414 L51.6628809,13.1543414 L61.9245414,14.615769 L75.6030609,13.1543414 L91.6075146,13.1543414 C84.3098764,15.9726959 79.1323375,23.0407491 79.1323375,31.3105612 C79.1323375,42.0598921 87.8803199,50.7698742 98.6613176,50.7698742 C109.445482,50.7698742 118.193464,42.0598921 118.193464,31.3105612 C118.193464,23.4888358 113.560596,16.7422017 106.880463,13.6483451 L120.28348,15.0385222 L134,13.1543414 L134,0.999 L0.999,0.999 Z M64.4658105,21.3703198 L64.4658105,26.2296064 L59.4529395,26.2296064 C59.831359,27.860452 60.0324439,29.5625481 60.0324439,31.3105612 C60.0324439,35.620427 58.813268,39.6484573 56.6995021,43.0668996 L59.4497728,45.8124203 L76.758903,39.610457 L76.758903,21.3703198 L64.4658105,21.3703198 Z M46.2937572,31.3089779 C46.2937572,36.1460976 42.3496442,40.0727938 37.4951077,40.0727938 C32.6421546,40.0727938 28.6948749,36.1460976 28.6948749,31.3089779 C28.6948749,26.4671082 32.6421546,22.5419953 37.4951077,22.5419953 C42.3496442,22.5419953 46.2937572,26.4671082 46.2937572,31.3089779 Z M107.459967,31.3089779 C107.459967,36.1460976 103.517437,40.0727938 98.6613176,40.0727938 C93.8083645,40.0727938 89.8610848,36.1460976 89.8610848,31.3089779 C89.8610848,26.4671082 93.8083645,22.5419953 98.6613176,22.5419953 C103.517437,22.5419953 107.459967,26.4671082 107.459967,31.3089779 Z M120.655566,28.7677088 L120.655566,41.7638065 C116.736787,49.9402013 108.359307,55.5848271 98.6613176,55.5848271 C92.9391079,55.5848271 87.6713183,53.6151456 83.5118704,50.3202042 L83.5118704,62.5847964 L91.0596771,82.661614 L112.645423,82.661614 L113.156843,79.6991751 L99.5954913,79.6991751 L99.5954913,67.9618368 L103.0076,67.9618368 L103.0076,70.507856 C103.0076,71.5180302 103.302103,72.6121218 103.973441,73.2929602 C104.296443,73.6191293 104.77778,73.9167983 105.388952,73.9167983 L120.389564,73.9167983 C121.000736,73.9167983 121.483656,73.6191293 121.806658,73.2929602 C122.481163,72.6105384 122.769332,71.5243636 122.769332,70.507856 L122.769332,62.5594629 L125.877439,62.5594629 L125.877439,28.7677088 L120.655566,28.7677088 Z M72.778373,44.6898285 L7.12496273,68.2167554 L7.12496273,79.8511762 L34.7575038,79.8511762 L34.7606705,79.8495929 L77.9004949,79.8495929 L82.6916976,92.5923553 L86.8321454,92.5923553 L86.8321454,92.5939387 L120.128312,92.5939387 L120.128312,86.8812291 L88.641909,86.8812291 L72.778373,44.6898285 Z M68.9593443,52.9168904 L71.9772003,60.9349506 L46.5819261,60.9349506 L68.9593443,52.9168904 Z M120.334147,62.5594629 L120.334147,70.507856 C120.334147,70.8387751 120.28348,71.0936937 120.224896,71.274195 L120.137812,71.4863633 L105.64387,71.4863633 L105.555203,71.2710284 C105.496619,71.090527 105.444369,70.8371918 105.444369,70.507856 L105.444369,67.9618368 L115.178775,67.9618368 L116.109782,62.5594629 L120.334147,62.5594629 Z M74.277801,67.0561633 L76.6607355,73.3942943 L13.5770946,73.3942943 L13.5976781,72.7562062 L29.507131,67.0561633 L74.277801,67.0561633 Z M96.135882,67.9618368 L96.135882,79.6991751 L93.9524489,79.6991751 L89.5396657,67.9618368 L96.135882,67.9618368 Z M31.3849785,83.5562041 L31.3818118,83.5593708 L8.38213885,83.5593708 L15.2364404,94.6997878 L26.9373617,90.1983373 L35.0377559,99.199655 L47.6396007,106.399126 L56.6409184,95.5991279 L68.3402563,107.300049 L79.4870068,96.1532988 L74.7480545,83.5562041 L31.3849785,83.5562041 Z"></path>
                            </g>
                        </g>
                    </g>
                </g>
            </g>
        </g>
    </g>
</svg>