<?xml version="1.0" encoding="UTF-8" standalone="no"?>
<svg width="48px" height="51px" viewBox="0 0 48 51" version="1.1" xmlns="http://www.w3.org/2000/svg" xmlns:xlink="http://www.w3.org/1999/xlink" xmlns:sketch="http://www.bohemiancoding.com/sketch/ns">
    <!-- Generator: Sketch 3.2.2 (9983) - http://www.bohemiancoding.com/sketch -->
    <title>building</title>
    <desc>Created with Sketch.</desc>
    <defs></defs>
    <g id="Landing-Page" stroke="none" stroke-width="1" fill="none" fill-rule="evenodd" sketch:type="MSPage">
        <g id="Desktop-HD-2" sketch:type="MSArtboardGroup" transform="translate(-417.000000, -487.000000)">
            <g id="Employers-+-Easily-post-jobs-in--+-CTA-INVITE-+-Employers-+-Easily-post-jobs-in--+-CTA-INVITE-2-+-company-+-tie" sketch:type="MSLayerGroup" transform="translate(370.000000, 461.000000)">
                <g id="company-+-tie" transform="translate(21.000000, 0.000000)" sketch:type="MSShapeGroup">
                    <g id="company">
                        <g id="building" transform="translate(26.000000, 26.000000)">
                            <path d="M23.415,0.187 C23.415,0.187 24.865,0.525 26.223,0.295 C27.578,0.064 28.563,0.325 28.994,0.603 C28.994,0.603 28.721,1.636 28.856,2.621 C28.98,3.526 28.718,4.348 28.378,4.687 C28.378,4.687 27.274,4.346 25.927,4.61 C24.434,4.902 23.415,4.362 23.415,4.362 L23.415,0.187" id="Fill-331" fill="#F9CC25"></path>
                            <path d="M41.879,8.275 C41.879,8.275 43.077,8.556 44.199,8.364 C45.319,8.174 46.134,8.39 46.491,8.618 C46.491,8.618 46.266,9.473 46.376,10.287 C46.478,11.036 46.262,11.715 45.981,11.996 C45.981,11.996 45.068,11.714 43.956,11.932 C42.722,12.173 41.879,11.728 41.879,11.728 L41.879,8.275" id="Fill-333" fill="#E26552"></path>
                            <path d="M6.314,5.622 C6.314,5.622 7.512,5.902 8.632,5.71 C9.754,5.521 10.569,5.735 10.926,5.966 C10.926,5.966 10.7,6.819 10.812,7.635 C10.913,8.383 10.696,9.061 10.416,9.341 C10.416,9.341 9.504,9.061 8.39,9.276 C7.156,9.519 6.314,9.074 6.314,9.074 L6.314,5.622" id="Fill-335" fill="#96938B"></path>
                            <path d="M6.583,11.372 C6.583,11.521 6.463,11.642 6.314,11.642 C6.164,11.642 6.048,11.521 6.048,11.372 L6.048,5.891 C6.048,5.743 6.164,5.622 6.314,5.622 C6.463,5.622 6.583,5.743 6.583,5.891 L6.583,11.372" id="Fill-336" fill="#96938B"></path>
                            <path d="M46.218,13.652 L36.729,13.652 L36.729,50.187 L46.218,50.187 C47.146,50.187 47.896,49.437 47.896,48.51 L47.896,15.329 C47.896,14.402 47.146,13.652 46.218,13.652" id="Fill-337" fill="#FAF9F8"></path>
                            <path d="M40.963,16.396 C41.354,16.396 41.673,16.716 41.673,17.106 L41.673,46.551 C41.673,46.941 41.354,47.262 40.963,47.262 L39.188,47.262 C38.799,47.262 38.48,46.941 38.48,46.551 L38.48,17.106 C38.48,16.716 38.799,16.396 39.188,16.396 L40.963,16.396" id="Fill-338" fill="#D6D3CA"></path>
                            <path d="M45.556,16.396 C45.946,16.396 46.266,16.716 46.266,17.106 L46.266,46.551 C46.266,46.941 45.946,47.262 45.556,47.262 L43.782,47.262 C43.393,47.262 43.072,46.941 43.072,46.551 L43.072,17.106 C43.072,16.716 43.393,16.396 43.782,16.396 L45.556,16.396" id="Fill-339" fill="#D6D3CA"></path>
                            <path d="M2.667,11.017 L12.156,11.017 L12.156,50.187 L2.667,50.187 C1.74,50.187 0.989,49.437 0.989,48.51 L0.989,12.693 C0.989,11.767 1.74,11.017 2.667,11.017" id="Fill-340" fill="#FAF9F8"></path>
                            <path d="M7.921,13.76 C7.531,13.76 7.213,14.079 7.213,14.469 L7.213,46.551 C7.213,46.941 7.531,47.262 7.921,47.262 L9.697,47.262 C10.087,47.262 10.405,46.941 10.405,46.551 L10.405,14.469 C10.405,14.079 10.087,13.76 9.697,13.76 L7.921,13.76" id="Fill-341" fill="#D6D3CA"></path>
                            <path d="M3.33,13.76 C2.939,13.76 2.621,14.079 2.621,14.469 L2.621,46.551 C2.621,46.941 2.939,47.262 3.33,47.262 L5.104,47.262 C5.493,47.262 5.813,46.941 5.813,46.551 L5.813,14.469 C5.813,14.079 5.493,13.76 5.104,13.76 L3.33,13.76" id="Fill-342" fill="#D6D3CA"></path>
                            <path d="M35.777,48.51 C35.777,49.437 35.028,50.187 34.101,50.187 L14.738,50.187 C13.811,50.187 13.061,49.437 13.061,48.51 L13.061,8.468 C13.061,7.54 13.811,6.789 14.738,6.789 L34.101,6.789 C35.028,6.789 35.777,7.54 35.777,8.468 L35.777,48.51" id="Fill-343" fill="#FFFFFD"></path>
                            <path d="M20.81,50.187 L20.81,43.803 C20.81,43.669 20.919,43.56 21.054,43.56 L27.785,43.56 C27.918,43.56 28.028,43.669 28.028,43.803 L28.028,50.187 L20.81,50.187" id="Fill-344" fill="#E5E3DD"></path>
                            <path d="M17.596,11.374 C17.988,11.374 18.306,11.693 18.306,12.084 L18.306,41.529 C18.306,41.92 17.988,42.239 17.596,42.239 L15.822,42.239 C15.432,42.239 15.111,41.92 15.111,41.529 L15.111,12.084 C15.111,11.693 15.432,11.374 15.822,11.374 L17.596,11.374" id="Fill-345" fill="#E5E3DD"></path>
                            <path d="M22.736,11.374 C23.127,11.374 23.446,11.693 23.446,12.084 L23.446,41.529 C23.446,41.92 23.127,42.239 22.736,42.239 L20.962,42.239 C20.573,42.239 20.253,41.92 20.253,41.529 L20.253,12.084 C20.253,11.693 20.573,11.374 20.962,11.374 L22.736,11.374" id="Fill-346" fill="#E5E3DD"></path>
                            <path d="M27.876,11.374 C28.268,11.374 28.586,11.693 28.586,12.084 L28.586,41.529 C28.586,41.92 28.268,42.239 27.876,42.239 L26.103,42.239 C25.712,42.239 25.393,41.92 25.393,41.529 L25.393,12.084 C25.393,11.693 25.712,11.374 26.103,11.374 L27.876,11.374" id="Fill-347" fill="#E5E3DD"></path>
                            <path d="M33.016,11.374 C33.407,11.374 33.726,11.693 33.726,12.084 L33.726,41.529 C33.726,41.92 33.407,42.239 33.016,42.239 L31.242,42.239 C30.853,42.239 30.532,41.92 30.532,41.529 L30.532,12.084 C30.532,11.693 30.853,11.374 31.242,11.374 L33.016,11.374" id="Fill-348" fill="#E5E3DD"></path>
                            <path d="M23.741,7.146 C23.741,7.324 23.596,7.471 23.415,7.471 C23.235,7.471 23.094,7.324 23.094,7.146 L23.094,0.512 C23.094,0.332 23.235,0.187 23.415,0.187 C23.596,0.187 23.741,0.332 23.741,0.512 L23.741,7.146" id="Fill-332" fill="#F9CC25"></path>
                            <path d="M42.15,14.026 C42.15,14.175 42.029,14.296 41.879,14.296 C41.73,14.296 41.612,14.175 41.612,14.026 L41.612,8.543 C41.612,8.396 41.73,8.275 41.879,8.275 C42.029,8.275 42.15,8.396 42.15,8.543 L42.15,14.026" id="Fill-334" fill="#E26552"></path>
                        </g>
                    </g>
                </g>
            </g>
        </g>
    </g>
</svg>