<?xml version="1.0" encoding="UTF-8" standalone="no"?>
<svg width="36px" height="57px" viewBox="0 0 36 57" version="1.1" xmlns="http://www.w3.org/2000/svg" xmlns:xlink="http://www.w3.org/1999/xlink" xmlns:sketch="http://www.bohemiancoding.com/sketch/ns">
    <!-- Generator: Sketch 3.2.2 (9983) - http://www.bohemiancoding.com/sketch -->
    <title>tie</title>
    <desc>Created with Sketch.</desc>
    <defs></defs>
    <g id="Landing-Page" stroke="none" stroke-width="1" fill="none" fill-rule="evenodd" sketch:type="MSPage">
        <g id="Desktop-HD-2" sketch:type="MSArtboardGroup" transform="translate(-942.000000, -483.000000)">
            <g id="Employers-+-Easily-post-jobs-in--+-CTA-INVITE-+-Employers-+-Easily-post-jobs-in--+-CTA-INVITE-2-+-company-+-tie" sketch:type="MSLayerGroup" transform="translate(370.000000, 461.000000)">
                <g id="company-+-tie" transform="translate(21.000000, 0.000000)" sketch:type="MSShapeGroup">
                    <g id="tie" transform="translate(519.000000, 0.000000)">
                        <g id="Fill-91-+-Fill-93-+-Fill-94">
                            <g id="Fill-93-+-Fill-94-+-Fill-95" transform="translate(32.000000, 22.000000)">
                                <path d="M26.415,18.13 C25.763,18.13 25.234,17.6 25.234,16.95 C25.234,16.29 25.763,15.76 26.415,15.76 C27.068,15.76 27.599,16.29 27.599,16.95 C27.599,17.6 27.068,18.13 26.415,18.13 L26.415,18.13 Z M10.244,15.76 C10.894,15.76 11.424,16.29 11.424,16.95 C11.424,17.6 10.894,18.13 10.244,18.13 C9.589,18.13 9.06,17.6 9.06,16.95 C9.06,16.29 9.589,15.76 10.244,15.76 L10.244,15.76 Z M35.646,4.17 L33.324,1.12 C33.156,0.91 32.914,0.77 32.657,0.72 L32.657,0.69 L4.212,0.69 C3.88,0.69 3.546,0.84 3.335,1.12 L1.013,4.17 C0.66,4.63 0.624,5.41 0.934,5.9 L9.511,19.59 C9.677,19.85 9.908,19.99 10.147,19.99 C10.358,19.99 10.57,19.88 10.744,19.67 L17.732,11.24 C18.101,10.79 18.013,10.15 17.541,9.82 L6.546,2.09 L30.111,2.09 L19.117,9.82 C18.646,10.15 18.557,10.79 18.926,11.24 L25.914,19.67 C26.087,19.88 26.3,19.99 26.511,19.99 C26.751,19.99 26.982,19.85 27.146,19.59 L35.724,5.9 C36.034,5.41 35.998,4.63 35.646,4.17 L35.646,4.17 Z" id="Fill-93" fill="#FFFFFD"></path>
                                <path d="M26.828,46.44 L22.651,21.88 L22.673,21.85 L23.572,20.08 C23.949,19.34 23.836,18.23 23.326,17.63 L19.257,12.77 C18.747,12.16 17.912,12.16 17.402,12.77 L13.331,17.63 C12.822,18.23 12.71,19.34 13.085,20.08 L13.986,21.85 L14.008,21.88 L9.83,46.44 C9.687,47.23 9.999,48.33 10.516,48.89 L17.38,56.27 C17.638,56.55 17.986,56.69 18.33,56.69 C18.671,56.69 19.017,56.55 19.277,56.27 L26.139,48.89 C26.658,48.33 26.97,47.23 26.828,46.44" id="Fill-94" fill="#FFFFFF"></path>
                                <path d="M25.039,47.87 L18.328,55.09 L16.607,53.24 L25.03,44.82 L25.351,46.71 C25.414,47.05 25.222,47.67 25.039,47.87 L25.039,47.87 Z M13.742,50.16 L24.165,39.74 L24.667,42.69 L15.405,51.95 L13.742,50.16 L13.742,50.16 Z M11.621,47.87 C11.437,47.67 11.246,47.05 11.306,46.71 L11.317,46.65 L23.301,34.66 L23.804,37.61 L12.541,48.87 L11.621,47.87 L11.621,47.87 Z M12.536,39.48 L22.439,29.58 L22.939,32.53 L11.829,43.64 L12.536,39.48 L12.536,39.48 Z M13.755,32.32 L21.574,24.5 L22.076,27.45 L13.046,36.48 L13.755,32.32 L13.755,32.32 Z M21.177,22.16 L21.212,22.37 L14.265,29.32 L15.484,22.16 L21.177,22.16 L21.177,22.16 Z M26.828,46.44 L22.651,21.88 L22.673,21.85 L23.572,20.08 C23.949,19.34 23.836,18.23 23.326,17.63 L19.257,12.77 C18.747,12.16 17.912,12.16 17.402,12.77 L13.331,17.63 C12.822,18.23 12.71,19.34 13.085,20.08 L13.986,21.85 L14.008,21.88 L9.83,46.44 C9.687,47.23 9.999,48.33 10.516,48.89 L17.38,56.27 C17.638,56.55 17.986,56.69 18.33,56.69 C18.671,56.69 19.017,56.55 19.277,56.27 L26.139,48.89 C26.658,48.33 26.97,47.23 26.828,46.44 L26.828,46.44 Z" id="Fill-95" fill="#E05947"></path>
                            </g>
                        </g>
                    </g>
                </g>
            </g>
        </g>
    </g>
</svg>